# 3ds Max Wavefront OBJ Exporter v0.97b - (c)2007 guruware
# File Created: 12.04.2019 15:30:51

mtllib fence2_corner4.mtl

#
# object fence2_corner4
#

v  -6.6617 40.6020 -2.9416
v  -17.7881 43.5833 -2.9416
v  -17.7881 43.5833 2.9416
v  -6.6617 40.6020 2.9416
v  -8.4309 -0.6006 -2.0919
v  -16.0190 -0.6006 -2.0919
v  -16.0190 -0.6006 2.0919
v  -8.4309 -0.6006 2.0919
v  -25.0000 45.3154 3.4780
v  -19.2406 45.3154 3.4780
v  -19.2406 45.3154 -3.4780
v  -25.0000 45.3154 -3.4780
v  -25.0000 -0.6006 2.4734
v  -21.0322 -0.6006 2.4734
v  -21.0322 -0.6006 -2.4734
v  -25.0000 -0.6006 -2.4734
v  -24.9578 25.3622 1.4539
v  24.9578 25.3622 1.4539
v  24.9578 25.3622 -1.4539
v  -24.9578 25.3622 -1.4539
v  -23.5000 19.2054 1.0340
v  23.5000 19.2054 1.0340
v  23.5000 19.2054 -1.0340
v  -23.5000 19.2054 -1.0340
v  -25.2458 10.4331 1.4539
v  25.2458 10.4331 1.4539
v  25.2458 10.4331 -1.4539
v  -25.2458 10.4331 -1.4539
v  -23.7880 4.2763 1.0340
v  23.7880 4.2763 1.0340
v  23.7880 4.2763 -1.0340
v  -23.7880 4.2763 -1.0340
v  6.6617 40.6020 -2.9416
v  6.6617 40.6020 2.9416
v  17.7881 43.5833 2.9416
v  17.7881 43.5833 -2.9416
v  16.0190 -0.6006 -2.0919
v  8.4309 -0.6006 -2.0919
v  16.0190 -0.6006 2.0919
v  8.4309 -0.6006 2.0919
v  25.0000 45.3154 3.4780
v  25.0000 45.3154 -3.4780
v  19.2406 45.3154 -3.4780
v  19.2406 45.3154 3.4780
v  25.0000 -0.6006 2.4734
v  21.0322 -0.6006 2.4734
v  21.0322 -0.6006 -2.4734
v  25.0000 -0.6006 -2.4734
v  -5.0000 50.2247 5.0000
v  5.0000 50.2247 5.0000
v  5.0000 50.2247 -5.0000
v  -5.0000 50.2247 -5.0000
v  -3.5000 -0.5312 3.5000
v  3.5000 -0.5312 3.5000
v  3.5000 -0.5312 -3.5000
v  -3.5000 -0.5312 -3.5000
v  2.9416 40.6020 -6.6617
v  2.9416 43.5833 -17.7881
v  -2.9416 43.5833 -17.7881
v  -2.9416 40.6020 -6.6617
v  2.0919 -0.6006 -8.4309
v  2.0919 -0.6006 -16.0190
v  -2.0919 -0.6006 -16.0190
v  -2.0919 -0.6006 -8.4309
v  -3.4780 45.3154 -25.0000
v  -3.4780 45.3154 -19.2406
v  3.4780 45.3154 -19.2406
v  3.4780 45.3154 -25.0000
v  -2.4734 -0.6006 -25.0000
v  -2.4734 -0.6006 -21.0322
v  2.4734 -0.6006 -21.0322
v  2.4734 -0.6006 -25.0000
v  -1.4539 25.3622 -24.9578
v  -1.4539 25.3622 24.9578
v  1.4539 25.3622 24.9578
v  1.4539 25.3622 -24.9578
v  -1.0340 19.2054 -23.5000
v  -1.0340 19.2054 23.5000
v  1.0340 19.2054 23.5000
v  1.0340 19.2054 -23.5000
v  -1.4539 10.4331 -25.2458
v  -1.4539 10.4331 25.2458
v  1.4539 10.4331 25.2458
v  1.4539 10.4331 -25.2458
v  -1.0340 4.2763 -23.7880
v  -1.0340 4.2763 23.7880
v  1.0340 4.2763 23.7880
v  1.0340 4.2763 -23.7880
v  2.9416 40.6020 6.6617
v  -2.9416 40.6020 6.6617
v  -2.9416 43.5833 17.7881
v  2.9416 43.5833 17.7881
v  2.0919 -0.6006 16.0190
v  2.0919 -0.6006 8.4309
v  -2.0919 -0.6006 16.0190
v  -2.0919 -0.6006 8.4309
v  -3.4780 45.3154 25.0000
v  3.4780 45.3154 25.0000
v  3.4780 45.3154 19.2406
v  -3.4780 45.3154 19.2406
v  -2.4734 -0.6006 21.0322
v  -2.4734 -0.6006 25.0000
v  2.4734 -0.6006 21.0322
v  2.4734 -0.6006 25.0000
# 104 vertices

vn 0.2588 0.9659 -0.0000
vn -0.0032 -0.0199 -0.9998
vn -0.9992 -0.0400 -0.0000
vn -0.0032 -0.0199 0.9998
vn 0.9991 -0.0429 -0.0000
vn 0.0000 1.0000 -0.0000
vn 0.0000 -0.0219 0.9998
vn 0.9992 -0.0390 -0.0000
vn 0.0000 -0.0219 -0.9998
vn 0.0000 -0.0680 0.9977
vn 0.0000 -0.0680 -0.9977
vn -0.2588 0.9659 -0.0000
vn 0.0032 -0.0199 -0.9998
vn 0.9992 -0.0400 -0.0000
vn 0.0032 -0.0199 0.9998
vn -0.9991 -0.0429 -0.0000
vn -0.9992 -0.0390 -0.0000
vn 0.0000 -0.0295 0.9996
vn 0.9996 -0.0295 -0.0000
vn 0.0000 -0.0295 -0.9996
vn -0.9996 -0.0295 -0.0000
vn 0.0000 0.9659 0.2588
vn 0.9998 -0.0199 -0.0032
vn 0.9998 -0.0199 -0.0000
vn 0.0000 -0.0400 -0.9992
vn -0.9998 -0.0199 -0.0032
vn -0.9998 -0.0199 -0.0000
vn 0.0000 -0.0429 0.9991
vn -0.9998 -0.0219 -0.0000
vn 0.0000 -0.0390 0.9992
vn 0.9998 -0.0219 -0.0000
vn -0.9977 -0.0680 -0.0000
vn 0.9977 -0.0680 -0.0000
vn 0.0000 0.9659 -0.2588
vn 0.9998 -0.0199 0.0032
vn 0.0000 -0.0400 0.9992
vn -0.9998 -0.0199 0.0032
vn 0.0000 -0.0429 -0.9991
vn 0.0000 -0.0390 -0.9992
vn 0.0000 -1.0000 -0.0000
# 40 vertex normals

vt 0.3990 0.4949 0.0000
vt 0.3215 0.4865 0.0000
vt 0.3258 0.4469 0.0000
vt 0.4033 0.4553 0.0000
vt 0.4298 0.7723 0.0000
vt 0.3791 0.7802 0.0000
vt 0.3514 0.7861 0.0000
vt 0.2826 0.4949 0.0000
vt 0.4386 0.4913 0.0000
vt 0.5133 0.4691 0.0000
vt 0.5093 0.7684 0.0000
vt 0.4580 0.7698 0.0000
vt 0.2779 0.6995 0.0000
vt 0.3169 0.6995 0.0000
vt 0.3169 0.7466 0.0000
vt 0.2779 0.7466 0.0000
vt 0.7137 0.6716 0.0000
vt 0.7405 0.6732 0.0000
vt 0.7337 0.9841 0.0000
vt 0.6948 0.9818 0.0000
vt 0.7589 0.6722 0.0000
vt 0.7924 0.6731 0.0000
vt 0.7908 0.9841 0.0000
vt 0.7437 0.9829 0.0000
vt 0.8192 0.6722 0.0000
vt 0.8297 0.9828 0.0000
vt 0.4175 0.1060 0.0000
vt 0.4175 0.4438 0.0000
vt 0.4372 0.4438 0.0000
vt 0.4372 0.1060 0.0000
vt 0.3757 0.1159 0.0000
vt 0.3757 0.4339 0.0000
vt 0.4789 0.4339 0.0000
vt 0.4789 0.1159 0.0000
vt 0.3230 0.0951 0.0000
vt 0.3230 0.4368 0.0000
vt 0.3034 0.4368 0.0000
vt 0.3034 0.0951 0.0000
vt 0.3648 0.1050 0.0000
vt 0.3648 0.4269 0.0000
vt 0.2616 0.4269 0.0000
vt 0.2616 0.1050 0.0000
vt 0.2140 0.5691 0.0000
vt 0.2258 0.6071 0.0000
vt 0.1513 0.6301 0.0000
vt 0.1396 0.5921 0.0000
vt 0.1403 0.2928 0.0000
vt 0.1916 0.2909 0.0000
vt 0.0998 0.5912 0.0000
vt 0.1120 0.2922 0.0000
vt 0.0263 0.5650 0.0000
vt 0.0609 0.2880 0.0000
vt 0.2198 0.2880 0.0000
vt 0.2536 0.5651 0.0000
vt 0.7181 0.5950 0.0000
vt 0.7858 0.5950 0.0000
vt 0.7858 0.6627 0.0000
vt 0.7181 0.6627 0.0000
vt 0.0669 0.6348 0.0000
vt 0.1140 0.6390 0.0000
vt 0.0938 0.9821 0.0000
vt 0.0263 0.9761 0.0000
vt 0.1614 0.6404 0.0000
vt 0.1614 0.9841 0.0000
vt 0.2087 0.6390 0.0000
vt 0.2290 0.9821 0.0000
vt 0.2559 0.6348 0.0000
vt 0.2964 0.9761 0.0000
vt 0.4929 0.4339 0.0000
vt 0.4929 0.1159 0.0000
vt 0.2476 0.4269 0.0000
vt 0.2476 0.1050 0.0000
# 72 texture coords

g fence2_corner4
usemtl fence2
s 1
f 1/1/1 2/2/1 3/3/1 4/4/1 
f 1/1/2 5/5/2 6/6/2 2/2/2 
f 6/6/3 7/7/3 3/8/3 2/2/3 
f 4/9/4 3/10/4 7/11/4 8/12/4 
f 8/12/5 5/5/5 1/1/5 4/9/5 
f 9/13/6 10/14/6 11/15/6 12/16/6 
f 13/17/7 14/18/7 10/19/7 9/20/7 
f 14/21/8 15/22/8 11/23/8 10/24/8 
f 15/22/9 16/25/9 12/26/9 11/23/9 
f 17/27/6 18/28/6 19/29/6 20/30/6 
f 21/31/10 22/32/10 18/28/10 17/27/10 
f 23/33/11 24/34/11 20/30/11 19/29/11 
f 25/35/6 26/36/6 27/37/6 28/38/6 
f 29/39/10 30/40/10 26/36/10 25/35/10 
f 31/41/11 32/42/11 28/38/11 27/37/11 
f 33/43/12 34/44/12 35/45/12 36/46/12 
f 37/47/13 38/48/13 33/43/13 36/46/13 
f 37/47/14 36/46/14 35/49/14 39/50/14 
f 34/51/15 40/52/15 39/50/15 35/49/15 
f 40/53/16 34/54/16 33/43/16 38/48/16 
f 41/16/6 42/13/6 43/14/6 44/15/6 
f 45/25/7 41/26/7 44/23/7 46/22/7 
f 46/22/17 44/23/17 43/24/17 47/21/17 
f 47/18/9 43/19/9 42/20/9 48/17/9 
f 49/55/6 50/56/6 51/57/6 52/58/6 
f 53/59/18 54/60/18 50/61/18 49/62/18 
f 54/60/19 55/63/19 51/64/19 50/61/19 
f 55/63/20 56/65/20 52/66/20 51/64/20 
f 56/65/21 53/67/21 49/68/21 52/66/21 
f 57/1/22 58/2/22 59/3/22 60/4/22 
f 57/1/23 61/5/23 62/6/24 58/2/23 
f 62/6/25 63/7/25 59/8/25 58/2/25 
f 60/9/26 59/10/26 63/11/26 64/12/27 
f 64/12/28 61/5/28 57/1/28 60/9/28 
f 65/13/6 66/14/6 67/15/6 68/16/6 
f 69/17/29 70/18/29 66/19/29 65/20/29 
f 70/21/30 71/22/30 67/23/30 66/24/30 
f 71/22/31 72/25/31 68/26/31 67/23/31 
f 73/28/6 74/27/6 75/30/6 76/29/6 
f 77/32/32 78/31/32 74/27/32 73/28/32 
f 79/34/33 80/33/33 76/29/33 75/30/33 
f 81/35/6 82/36/6 83/37/6 84/38/6 
f 85/39/32 86/40/32 82/36/32 81/35/32 
f 87/41/33 88/42/33 84/38/33 83/37/33 
f 89/43/34 90/44/34 91/45/34 92/46/34 
f 92/46/35 93/47/24 94/48/35 89/43/35 
f 95/50/36 93/47/36 92/46/36 91/49/36 
f 90/51/37 96/52/27 95/50/37 91/49/37 
f 94/48/38 96/53/38 90/54/38 89/43/38 
f 97/16/6 98/13/6 99/14/6 100/15/6 
f 101/22/29 102/25/29 97/26/29 100/23/29 
f 101/22/39 100/23/39 99/24/39 103/21/39 
f 98/20/31 104/17/31 103/18/31 99/19/31 
f 22/69/40 21/70/40 24/34/40 23/33/40 
f 30/71/40 29/72/40 32/42/40 31/41/40 
f 80/33/40 79/34/40 78/70/40 77/69/40 
f 88/42/40 87/41/40 86/71/40 85/72/40 
# 57 polygons

