# 3ds Max Wavefront OBJ Exporter v0.97b - (c)2007 guruware
# File Created: 12.04.2019 15:31:05

mtllib fence2_corner2.mtl

#
# object fence2_corner2
#

v  -6.6617 40.6020 -2.9416
v  -17.7881 43.5833 -2.9416
v  -17.7881 43.5833 2.9416
v  -6.6617 40.6020 2.9416
v  -8.4309 -0.6006 -2.0919
v  -16.0190 -0.6006 -2.0919
v  -16.0190 -0.6006 2.0919
v  -8.4309 -0.6006 2.0919
v  -25.0000 45.3154 3.4780
v  -19.2406 45.3154 3.4780
v  -19.2406 45.3154 -3.4780
v  -25.0000 45.3154 -3.4780
v  -25.0000 -0.6006 2.4734
v  -21.0322 -0.6006 2.4734
v  -21.0322 -0.6006 -2.4734
v  -25.0000 -0.6006 -2.4734
v  -25.3706 25.3622 1.4539
v  0.7146 25.3622 1.4539
v  0.7146 25.3622 -1.4539
v  -25.3706 25.3622 -1.4539
v  -23.9128 19.2054 1.0340
v  -0.7432 19.2054 1.0340
v  -0.7432 19.2054 -1.0340
v  -23.9128 19.2054 -1.0340
v  -25.6586 10.4331 1.4539
v  1.0026 10.4331 1.4539
v  1.0026 10.4331 -1.4539
v  -25.6586 10.4331 -1.4539
v  -24.2008 4.2763 1.0340
v  -0.4553 4.2763 1.0340
v  -0.4553 4.2763 -1.0340
v  -24.2008 4.2763 -1.0340
v  -5.0000 50.2247 5.0000
v  5.0000 50.2247 5.0000
v  5.0000 50.2247 -5.0000
v  -5.0000 50.2247 -5.0000
v  -3.5000 -0.5312 3.5000
v  3.5000 -0.5312 3.5000
v  3.5000 -0.5312 -3.5000
v  -3.5000 -0.5312 -3.5000
v  -1.4539 25.3622 -1.1953
v  -1.4539 25.3622 24.9578
v  1.4539 25.3622 24.9578
v  1.4539 25.3622 -1.1953
v  -1.0340 19.2054 0.2625
v  -1.0340 19.2054 23.5000
v  1.0340 19.2054 23.5000
v  1.0340 19.2054 0.2625
v  -1.4539 10.4331 -1.4833
v  -1.4539 10.4331 25.2458
v  1.4539 10.4331 25.2458
v  1.4539 10.4331 -1.4833
v  -1.0340 4.2763 -0.0254
v  -1.0340 4.2763 23.7880
v  1.0340 4.2763 23.7880
v  1.0340 4.2763 -0.0254
v  2.9416 40.6020 6.6617
v  -2.9416 40.6020 6.6617
v  -2.9416 43.5833 17.7881
v  2.9416 43.5833 17.7881
v  2.0919 -0.6006 16.0190
v  2.0919 -0.6006 8.4309
v  -2.0919 -0.6006 16.0190
v  -2.0919 -0.6006 8.4309
v  -3.4780 45.3154 25.0000
v  3.4780 45.3154 25.0000
v  3.4780 45.3154 19.2406
v  -3.4780 45.3154 19.2406
v  -2.4734 -0.6006 25.0000
v  -2.4734 -0.6006 21.0322
v  2.4734 -0.6006 21.0322
v  2.4734 -0.6006 25.0000
# 72 vertices

vn 0.2588 0.9659 -0.0000
vn -0.0032 -0.0199 -0.9998
vn -0.9992 -0.0400 -0.0000
vn -0.0032 -0.0199 0.9998
vn 0.9991 -0.0429 -0.0000
vn 0.0000 1.0000 -0.0000
vn 0.0000 -0.0219 0.9998
vn 0.9992 -0.0390 -0.0000
vn 0.0000 -0.0219 -0.9998
vn 0.0000 -0.0680 0.9977
vn 0.0000 -0.0680 -0.9977
vn 0.0000 -0.0295 0.9996
vn 0.9996 -0.0295 -0.0000
vn 0.0000 -0.0295 -0.9996
vn -0.9996 -0.0295 -0.0000
vn -0.9977 -0.0680 -0.0000
vn 0.9977 -0.0680 -0.0000
vn 0.0000 0.9659 -0.2588
vn 0.9998 -0.0199 0.0032
vn 0.0000 -0.0400 0.9992
vn -0.9998 -0.0199 0.0032
vn 0.0000 -0.0429 -0.9991
vn -0.9998 -0.0219 -0.0000
vn 0.0000 -0.0390 -0.9992
vn 0.9998 -0.0219 -0.0000
vn 0.0000 -1.0000 -0.0000
# 26 vertex normals

vt 0.3990 0.4949 0.0000
vt 0.3215 0.4865 0.0000
vt 0.3258 0.4469 0.0000
vt 0.4033 0.4553 0.0000
vt 0.4298 0.7723 0.0000
vt 0.3791 0.7802 0.0000
vt 0.3514 0.7861 0.0000
vt 0.2826 0.4949 0.0000
vt 0.4386 0.4913 0.0000
vt 0.5133 0.4691 0.0000
vt 0.5093 0.7684 0.0000
vt 0.4580 0.7698 0.0000
vt 0.2779 0.6995 0.0000
vt 0.3169 0.6995 0.0000
vt 0.3169 0.7466 0.0000
vt 0.2779 0.7466 0.0000
vt 0.7137 0.6716 0.0000
vt 0.7405 0.6732 0.0000
vt 0.7337 0.9841 0.0000
vt 0.6948 0.9818 0.0000
vt 0.7589 0.6722 0.0000
vt 0.7924 0.6731 0.0000
vt 0.7908 0.9841 0.0000
vt 0.7437 0.9829 0.0000
vt 0.8192 0.6722 0.0000
vt 0.8297 0.9828 0.0000
vt 0.2033 0.2366 0.0000
vt 0.0263 0.2366 0.0000
vt 0.0263 0.2170 0.0000
vt 0.2033 0.2170 0.0000
vt 0.1935 0.2784 0.0000
vt 0.0362 0.2784 0.0000
vt 0.0362 0.1752 0.0000
vt 0.1935 0.1752 0.0000
vt 0.6838 0.4472 0.0000
vt 0.6914 0.2665 0.0000
vt 0.7110 0.2673 0.0000
vt 0.7035 0.4480 0.0000
vt 0.6425 0.4356 0.0000
vt 0.6492 0.2746 0.0000
vt 0.7523 0.2789 0.0000
vt 0.7456 0.4399 0.0000
vt 0.7181 0.5950 0.0000
vt 0.7858 0.5950 0.0000
vt 0.7858 0.6627 0.0000
vt 0.7181 0.6627 0.0000
vt 0.5731 0.0152 0.0000
vt 0.5779 0.3589 0.0000
vt 0.5305 0.3609 0.0000
vt 0.5055 0.0181 0.0000
vt 0.9021 0.6348 0.0000
vt 0.9109 0.2911 0.0000
vt 0.9582 0.2909 0.0000
vt 0.9698 0.6345 0.0000
vt 0.8929 0.5620 0.0000
vt 0.8252 0.5634 0.0000
vt 0.8426 0.9067 0.0000
vt 0.8899 0.9057 0.0000
vt 0.6252 0.3596 0.0000
vt 0.6407 0.0162 0.0000
vt 0.2140 0.5691 0.0000
vt 0.2258 0.6071 0.0000
vt 0.1513 0.6301 0.0000
vt 0.1396 0.5921 0.0000
vt 0.1403 0.2928 0.0000
vt 0.1916 0.2909 0.0000
vt 0.1120 0.2922 0.0000
vt 0.0998 0.5912 0.0000
vt 0.0263 0.5650 0.0000
vt 0.0609 0.2880 0.0000
vt 0.2198 0.2880 0.0000
vt 0.2536 0.5651 0.0000
vt 0.0362 0.1612 0.0000
vt 0.1935 0.1612 0.0000
vt 0.7663 0.2795 0.0000
vt 0.7596 0.4405 0.0000
# 76 texture coords

g fence2_corner2
usemtl fence2
s 1
f 1/1/1 2/2/1 3/3/1 4/4/1 
f 1/1/2 5/5/2 6/6/2 2/2/2 
f 6/6/3 7/7/3 3/8/3 2/2/3 
f 4/9/4 3/10/4 7/11/4 8/12/4 
f 8/12/5 5/5/5 1/1/5 4/9/5 
f 9/13/6 10/14/6 11/15/6 12/16/6 
f 13/17/7 14/18/7 10/19/7 9/20/7 
f 14/21/8 15/22/8 11/23/8 10/24/8 
f 15/22/9 16/25/9 12/26/9 11/23/9 
f 17/27/6 18/28/6 19/29/6 20/30/6 
f 21/31/10 22/32/10 18/28/10 17/27/10 
f 23/33/11 24/34/11 20/30/11 19/29/11 
f 25/35/6 26/36/6 27/37/6 28/38/6 
f 29/39/10 30/40/10 26/36/10 25/35/10 
f 31/41/11 32/42/11 28/38/11 27/37/11 
f 33/43/6 34/44/6 35/45/6 36/46/6 
f 33/47/12 37/48/12 38/49/12 34/50/12 
f 34/51/13 38/52/13 39/53/13 35/54/13 
f 36/55/14 35/56/14 39/57/14 40/58/14 
f 40/59/15 37/48/15 33/47/15 36/60/15 
f 41/27/6 42/28/6 43/29/6 44/30/6 
f 45/31/16 46/32/16 42/28/16 41/27/16 
f 43/29/17 47/33/17 48/34/17 44/30/17 
f 49/35/6 50/36/6 51/37/6 52/38/6 
f 53/39/16 54/40/16 50/36/16 49/35/16 
f 51/37/17 55/41/17 56/42/17 52/38/17 
f 57/61/18 58/62/18 59/63/18 60/64/18 
f 61/65/19 62/66/19 57/61/19 60/64/19 
f 63/67/20 61/65/20 60/64/20 59/68/20 
f 58/69/21 64/70/21 63/67/21 59/68/21 
f 57/61/22 62/66/22 64/71/22 58/72/22 
f 65/16/6 66/13/6 67/14/6 68/15/6 
f 69/25/23 65/26/23 68/23/23 70/22/23 
f 71/21/24 70/22/24 68/23/24 67/24/24 
f 71/18/25 67/19/25 66/20/25 72/17/25 
f 22/73/26 21/74/26 24/34/26 23/33/26 
f 30/75/26 29/76/26 32/42/26 31/41/26 
f 45/74/26 48/34/26 47/33/26 46/73/26 
f 53/76/26 56/42/26 55/41/26 54/75/26 
# 39 polygons

